<?xml version="1.0" encoding="UTF-8"?>
<svg width="64" height="64" viewBox="0 0 64 64" fill="none" xmlns="http://www.w3.org/2000/svg">
  <rect width="64" height="64" rx="12" fill="#1a1a2e"/>
  <path d="M32 12C24.268 12 18 18.268 18 26V32C18 39.732 24.268 46 32 46C39.732 46 46 39.732 46 32V26C46 18.268 39.732 12 32 12ZM32 16C37.5228 16 42 20.4772 42 26V32C42 37.5228 37.5228 42 32 42C26.4772 42 22 37.5228 22 32V26C22 20.4772 26.4772 16 32 16Z" fill="#ffffff"/>
  <path d="M32 20C28.6863 20 26 22.6863 26 26V32C26 35.3137 28.6863 38 32 38C35.3137 38 38 35.3137 38 32V26C38 22.6863 35.3137 20 32 20Z" fill="#4cc9f0"/>
  <path d="M32 24C30.8954 24 30 24.8954 30 26V32C30 33.1046 30.8954 34 32 34C33.1046 34 34 33.1046 34 32V26C34 24.8954 33.1046 24 32 24Z" fill="#1a1a2e"/>
  <path d="M32 12V8C32 7.44772 31.5523 7 31 7C30.4477 7 30 7.44772 30 8V12H32Z" fill="#4cc9f0"/>
  <path d="M32 56V52H30V56C30 56.5523 30.4477 57 31 57C31.5523 57 32 56.5523 32 56Z" fill="#4cc9f0"/>
  <path d="M56 31C56 30.4477 55.5523 30 55 30H51V32H55C55.5523 32 56 31.5523 56 31Z" fill="#4cc9f0"/>
  <path d="M13 30H9C8.44772 30 8 30.4477 8 31C8 31.5523 8.44772 32 9 32H13V30Z" fill="#4cc9f0"/>
</svg>
